{"title":"UFC Fight Night 87 Post-fight Press Conference Web rip","uid":14564275,"size":125420006,"categoryP":"video","categoryS":"tv_shows","magnet":"?xt=urn:btih:53c10e7e60cdb7645fbcaf144c8f90d158f15d95&amp;dn=UFC+Fight+Night+87+Post-fight+Press+Conference+Web+rip&amp;tr=udp%3A%2F%2Ftracker.leechers-paradise.org%3A6969&amp;tr=udp%3A%2F%2Fzer0day.ch%3A1337&amp;tr=udp%3A%2F%2Fopen.demonii.com%3A1337&amp;tr=udp%3A%2F%2Ftracker.coppersurfer.tk%3A6969&amp;tr=udp%3A%2F%2Fexodus.desync.com%3A6969","seeders":0,"leechers":0,"uploader":"THunDer4","files":1,"time":1462754720,"description":"UFC Fight Night 87 Post-fight Press Conference May 8th,16. Duration, 29min,41sec, Video MKV.\r\nID : 1 \r\nFormat : AVC \r\nFormat/Info : Advanced Video Codec \r\nFormat profile :    \r\nFormat settings, CABAC : No \r\nFormat settings, ReFrames : 1 frame \r\nCodec ID : avc1 \r\nCodec ID/Info : Advanced Video Coding \r\nDuration : 29mn 41s \r\nBit rate mode : Variable \r\nBit rate : 465 Kbps \r\nMaximum bit rate : 1 023 Kbps \r\nWidth : 640 pixels \r\nHeight : 360 pixels \r\nDisplay aspect ratio : 16:9 \r\nFrame rate mode : Constant \r\nFrame rate : 30.000 fps \r\nColor space : YUV \r\nChroma subsampling : 4:2:0 \r\nBit depth : 8 bits \r\nScan type : Progressive \r\nBits/(Pixel*Frame) : 0.067 \r\nStream size : 98.7 MiB (82%) \r\nTagged date : UTC 2016-05-08 22:02:13 \r\nAudio \r\nID : 2 \r\nFormat : AAC \r\nFormat/Info : Advanced Audio Codec \r\nFormat version : Version 4 \r\nFormat profile : LC \r\nFormat settings, SBR : No \r\nCodec ID : 40 \r\nDuration : 29mn 41s \r\nBit rate mode : Variable \r\nBit rate : 96.0 Kbps \r\nMaximum bit rate : 103 Kbps \r\nChannel(s) : 2 channels \r\nChannel positions : Front: L R \r\nSampling rate : 44.1 KHz \r\nStream size : 20.4 MiB (17%) \r\nTitle : IsoMedia File Produced by Google, 5-11-2011 \r\nEncoded date : UTC 2016-05-08 22:02:09 \r\nTagged date : UTC 2016-05-08 22:02:13","torrent":{"xt":"urn:btih:53c10e7e60cdb7645fbcaf144c8f90d158f15d95","amp;dn":"UFC+Fight+Night+87+Post-fight+Press+Conference+Web+rip","amp;tr":["udp%3A%2F%2Ftracker.leechers-paradise.org%3A6969","udp%3A%2F%2Fzer0day.ch%3A1337","udp%3A%2F%2Fopen.demonii.com%3A1337","udp%3A%2F%2Ftracker.coppersurfer.tk%3A6969","udp%3A%2F%2Fexodus.desync.com%3A6969"],"infoHash":"53c10e7e60cdb7645fbcaf144c8f90d158f15d95","infoHashBuffer":{"type":"Buffer","data":[83,193,14,126,96,205,183,100,95,188,175,20,76,143,144,209,88,241,93,149]},"announce":[],"urlList":[]}}